<svg width="64" height="64" viewBox="0 0 64 64" xmlns="http://www.w3.org/2000/svg">
<rect width="64" height="64" rx="14" fill="#000000"/>
<g transform="translate(12.5, 15) scale(0.24)">
<path d="M162.18 130.56H111.52V123.76C111.52 122.173 111.52 121.04 111.52 120.36C111.52 119.68 111.52 118.547 111.52 116.96C111.293 117.64 110.16 118.887 108.12 120.7C106.08 122.513 103.247 124.327 99.62 126.14C95.7667 128.18 91.2333 129.88 86.02 131.24C80.8067 132.827 74.9133 133.62 68.34 133.62C58.82 133.62 49.8667 131.92 41.48 128.52C33.0933 124.893 25.84 120.02 19.72 113.9C13.6 107.78 8.72667 100.753 5.1 92.82C1.7 84.66 0 76.0467 0 66.98C0 58.14 1.7 49.64 5.1 41.48C8.72667 33.32 13.6 26.18 19.72 20.06C25.84 13.94 33.0933 9.06665 41.48 5.43999C49.8667 1.81333 58.82 0 68.34 0C80.8067 0 90.6667 2.26666 97.92 6.79999C105.173 11.1067 109.707 15.1867 111.52 19.04C111.747 16.7733 111.973 14.28 112.2 11.56C112.653 8.61332 112.88 5.78 112.88 3.05999H136.34V103.7H162.18V130.56ZM68.34 27.54C62.22 27.54 56.5533 28.6733 51.34 30.94C46.1267 32.98 41.82 35.9267 38.42 39.78C35.2467 43.18 32.7533 47.1467 30.94 51.68C29.3533 56.2133 28.56 61.2 28.56 66.64C28.56 72.9867 29.8067 78.88 32.3 84.32C35.02 89.76 38.6467 94.2933 43.18 97.92C46.3533 100.413 50.0933 102.453 54.4 104.04C58.7067 105.4 63.3533 106.08 68.34 106.08C74.0067 106.08 79.1067 105.173 83.64 103.36C88.4 101.547 92.48 99.0533 95.88 95.88C99.7333 92.2533 102.68 87.9467 104.72 82.96C106.987 77.9733 108.12 72.5333 108.12 66.64C108.12 60.7467 106.987 55.3067 104.72 50.32C102.68 45.3333 99.8467 41.14 96.22 37.74C92.5933 34.5667 88.4 32.0733 83.64 30.26C79.1067 28.4467 74.0067 27.54 68.34 27.54Z" fill="white"/>
</g>
</svg>
