<svg width="317" height="76" viewBox="0 0 317 76" fill="none" xmlns="http://www.w3.org/2000/svg">
<path d="M53.5932 61.3295H36.8523V59.0891C36.8523 58.5664 36.8523 58.193 36.8523 57.969C36.8523 57.7449 36.8523 57.3715 36.8523 56.8488C36.7774 57.0728 36.4029 57.4836 35.7288 58.081C35.0547 58.6784 34.1184 59.2758 32.9199 59.8733C31.6466 60.5454 30.1485 61.1055 28.4257 61.5535C26.703 62.0763 24.7555 62.3377 22.5833 62.3377C19.4374 62.3377 16.4787 61.7776 13.7073 60.6574C10.9359 59.4625 8.53895 57.857 6.51657 55.8406C4.49419 53.8243 2.88377 51.5093 1.68532 48.8955C0.561773 46.2071 0 43.3693 0 40.3822C0 37.4697 0.561773 34.6693 1.68532 31.9809C2.88377 29.2924 4.49419 26.9401 6.51657 24.9237C8.53895 22.9074 10.9359 21.3018 13.7073 20.107C16.4787 18.9121 19.4374 18.3147 22.5833 18.3147C26.703 18.3147 29.9612 19.0615 32.3581 20.555C34.755 21.9739 36.2531 23.3182 36.8523 24.5877C36.9272 23.8409 37.0021 23.0194 37.077 22.1233C37.2268 21.1525 37.3017 20.219 37.3017 19.3229H45.0542V52.4801H53.5932V61.3295ZM22.5833 27.3881C20.5609 27.3881 18.6883 27.7615 16.9656 28.5083C15.2428 29.1804 13.8196 30.1512 12.6961 31.4208C11.6474 32.5409 10.8235 33.8478 10.2243 35.3414C9.69995 36.835 9.43779 38.4779 9.43779 40.2702C9.43779 42.3612 9.84976 44.3028 10.6737 46.0951C11.5725 47.8874 12.771 49.3809 14.269 50.5758C15.3177 51.3973 16.5536 52.0694 17.9767 52.5921C19.3999 53.0402 20.9354 53.2642 22.5833 53.2642C24.4559 53.2642 26.1412 52.9655 27.6392 52.3681C29.2122 51.7707 30.5605 50.9492 31.684 49.9037C32.9574 48.7088 33.9311 47.2899 34.6052 45.647C35.3543 44.0041 35.7288 42.2118 35.7288 40.2702C35.7288 38.3285 35.3543 36.5362 34.6052 34.8933C33.9311 33.2504 32.9948 31.8688 31.7964 30.7487C30.5979 29.7032 29.2122 28.8817 27.6392 28.2843C26.1412 27.6868 24.4559 27.3881 22.5833 27.3881Z" fill="white"></path>
<path d="M265.771 18.3508C271.012 18.3508 275.214 19.8814 278.379 22.9427C281.544 26.0039 283.127 30.5438 283.127 36.5625V60.3778H273.398V37.8078C273.398 34.1758 272.542 31.4518 270.83 29.6358C269.118 27.768 266.679 26.834 263.514 26.834C259.934 26.834 257.106 27.9236 255.031 30.1028C252.956 32.2301 251.918 35.3173 251.918 39.3643V60.3778H242.189V18.8178H251.451V24.1879C253.059 22.2682 255.083 20.8154 257.522 19.8296C259.96 18.8437 262.71 18.3508 265.771 18.3508Z" fill="white"></path>
<path d="M219.692 18.8179H229.421V60.3779H219.692V18.8179Z" fill="white"></path>
<path d="M188.209 60.9226C184.006 60.9226 180.219 60.0146 176.846 58.1986C173.474 56.3826 170.828 53.8662 168.908 50.6493C167.04 47.3806 166.106 43.6967 166.106 39.5978C166.106 35.4989 167.04 31.841 168.908 28.6241C170.828 25.4072 173.474 22.8908 176.846 21.0748C180.219 19.2588 184.006 18.3508 188.209 18.3508C192.464 18.3508 196.277 19.2588 199.65 21.0748C203.022 22.8908 205.642 25.4072 207.51 28.6241C209.43 31.841 210.39 35.4989 210.39 39.5978C210.39 43.6967 209.43 47.3806 207.51 50.6493C205.642 53.8662 203.022 56.3826 199.65 58.1986C196.277 60.0146 192.464 60.9226 188.209 60.9226ZM188.209 52.595C191.789 52.595 194.747 51.4016 197.081 49.0149C199.416 46.6282 200.584 43.4892 200.584 39.5978C200.584 35.7064 199.416 32.5674 197.081 30.1806C194.747 27.7939 191.789 26.6006 188.209 26.6006C184.629 26.6006 181.671 27.7939 179.337 30.1806C177.054 32.5674 175.912 35.7064 175.912 39.5978C175.912 43.4892 177.054 46.6282 179.337 49.0149C181.671 51.4016 184.629 52.595 188.209 52.595Z" fill="white"></path>
<path d="M139.212 18.3508C143.259 18.3508 146.865 19.2329 150.03 20.997C153.247 22.7611 155.764 25.2515 157.58 28.4684C159.396 31.6853 160.304 35.3951 160.304 39.5978C160.304 43.8005 159.396 47.5362 157.58 50.805C155.764 54.0219 153.247 56.5123 150.03 58.2764C146.865 60.0405 143.259 60.9226 139.212 60.9226C133.609 60.9226 129.173 59.0547 125.904 55.319V75.4764H116.175V18.8178H125.437V24.2657C127.045 22.2941 129.017 20.8154 131.352 19.8296C133.738 18.8437 136.359 18.3508 139.212 18.3508ZM138.123 52.595C141.703 52.595 144.634 51.4017 146.917 49.0149C149.252 46.6282 150.419 43.4892 150.419 39.5978C150.419 35.7064 149.252 32.5674 146.917 30.1806C144.634 27.7939 141.703 26.6006 138.123 26.6006C135.788 26.6006 133.687 27.1454 131.819 28.2349C129.951 29.2726 128.472 30.7773 127.382 32.749C126.293 34.7206 125.748 37.0035 125.748 39.5978C125.748 42.192 126.293 44.475 127.382 46.4466C128.472 48.4183 129.951 49.9489 131.819 51.0385C133.687 52.0762 135.788 52.595 138.123 52.595Z" fill="white"></path>
<path d="M85.8573 18.3508C89.9043 18.3508 93.5104 19.2329 96.6754 20.997C99.8922 22.7611 102.409 25.2515 104.225 28.4684C106.041 31.6853 106.949 35.3951 106.949 39.5978C106.949 43.8005 106.041 47.5362 104.225 50.805C102.409 54.0219 99.8922 56.5123 96.6754 58.2764C93.5104 60.0405 89.9043 60.9226 85.8573 60.9226C80.2537 60.9226 75.8175 59.0547 72.5488 55.319V75.4764H62.8203V18.8178H72.0818V24.2657C73.6902 22.2941 75.6619 20.8154 77.9967 19.8296C80.3834 18.8437 83.0036 18.3508 85.8573 18.3508ZM84.7677 52.595C88.3478 52.595 91.2793 51.4017 93.5622 49.0149C95.8971 46.6282 97.0645 43.4892 97.0645 39.5978C97.0645 35.7064 95.8971 32.5674 93.5622 30.1806C91.2793 27.7939 88.3478 26.6006 84.7677 26.6006C82.4329 26.6006 80.3315 27.1454 78.4637 28.2349C76.5958 29.2726 75.1171 30.7773 74.0275 32.749C72.9379 34.7206 72.3931 37.0035 72.3931 39.5978C72.3931 42.192 72.9379 44.475 74.0275 46.4466C75.1171 48.4183 76.5958 49.9489 78.4637 51.0385C80.3315 52.0762 82.4329 52.595 84.7677 52.595Z" fill="white"></path>
<path d="M304.733 17.7693H316.06V25.4255H304.733V52.2224H316.06V59.8787H304.575V59.8328H295.005V9.15601H304.733V17.7693Z" fill="white"></path>
<rect x="217.186" y="2.5061" width="9.68283" height="9.68283" transform="rotate(-15 217.186 2.5061)" fill="white"></rect>
</svg>